<svg
  t="1685432742628"
  class="icon"
  viewBox="0 0 1024 1024"
  version="1.1"
  xmlns="http://www.w3.org/2000/svg"
  p-id="4298"
  width="200"
  height="200"
>
  <path
    d="M386.8928 873.088c-5.0944 0-8.192-0.0768-8.7808-0.1792h-0.2048c-88.704-5.1968-163.0976-33.1008-215.1168-80.8192-51.2-47.0016-78.2848-110.08-78.2848-182.5792 0-8.704 0.5888-18.304 1.792-28.7232a34.4064 34.4064 0 0 1 34.2016-30.592h525.824c14.7712-1.5872 19.968-3.6864 22.4768-4.6848 0.6912-0.3072 1.5104-0.6144 2.304-0.9216l8.2944-2.8928c-10.8032-33.1008-8.192-68.6848 8.0128-103.808a190.464 190.464 0 0 1 33.792-50.3808l9.088-9.1136 10.8032 6.912c49.7152 31.488 70.1952 67.7888 78.208 87.7056 64.5888-7.0144 112 33.4848 114.0992 35.2768l8.9088 7.7056-4.7104 10.8032c-24.9088 56.704-64 80.2048-92.4928 89.9072a145.3056 145.3056 0 0 1-45.312 7.8848c-26.496 57.9072-64 106.8032-111.6928 145.6128-40.192 32.6912-87.7056 58.2912-141.0048 76.0064-73.7024 24.3968-137.4976 26.88-160.2048 26.88z m-7.296-32.1792c2.7136 0.1024 74.7008 2.4832 158.4128-25.4976 49.408-16.512 93.2864-40.192 130.304-70.5024 46.08-37.7088 81.8944-85.8112 106.3936-143.0016l4.7872-11.1104 12.0064 1.5104c2.9952 0.384 71.68 7.5008 111.104-66.9184-16.128-10.2912-50.5088-27.5968-91.008-18.8928l-16.3072 3.5072-2.688-16.1024c-0.512-2.5088-9.1136-38.9888-57.1904-73.9072a167.168 167.168 0 0 0-19.4048 32.1024c-14.592 32.3072-15.0016 63.3088-1.2032 92.2112l7.68 16.1024-40.96 14.3872c-0.128 0-0.3328 0.1024-0.6144 0.3072-3.9168 1.5872-12.1088 4.8896-32.1024 6.9888l-0.8192 0.1024H120.3968c-1.2032 0-2.304 1.024-2.4064 2.2016a238.08 238.08 0 0 0-1.5872 25.088c0 63.3088 23.5008 118.3232 67.8912 159.0272 46.592 42.7008 114.0992 67.6864 195.328 72.3968z"
    p-id="4299">
    </path>
    <path d="M191.8976 408.704H132.4032a20.0704 20.0704 0 0 0-19.9936 19.9936v59.4944c0 11.008 8.9856 20.0192 19.968 20.0192h59.52c11.008 0 19.9936-9.0112 19.9936-20.0192v-59.4944a19.9936 19.9936 0 0 0-19.968-19.9936z m137.7024 2.0992h-59.4944a20.0704 20.0704 0 0 0-19.9936 19.9936v59.4944c0 11.008 8.9856 20.0192 19.968 20.0192h59.52c11.008 0 19.9936-9.0112 19.9936-20.0192v-59.4944a19.9936 19.9936 0 0 0-19.9936-19.9936z m137.6 0h-59.4944a20.0704 20.0704 0 0 0-19.9936 19.9936v59.4944c0 11.008 8.9856 20.0192 19.968 20.0192h59.52c11.008 0 19.9936-9.0112 19.9936-20.0192v-59.4944a19.9424 19.9424 0 0 0-19.9936-19.9936z m-137.3952-133.1968h-59.4944a20.0704 20.0704 0 0 0-20.0192 19.9936v59.4944c0 11.008 9.0112 19.9936 20.0192 19.9936h59.4944c11.008 0 19.9936-8.9856 19.9936-19.968v-59.52a19.9936 19.9936 0 0 0-19.9936-19.9936z m137.3952 1.28h-59.4944a20.0704 20.0704 0 0 0-19.9936 20.0192V358.4c0 11.008 8.9856 19.9936 19.968 19.9936h59.52c11.008 0 19.9936-8.9856 19.9936-19.9936v-59.4944a19.9424 19.9424 0 0 0-19.9936-19.9936z m0-131.8912h-59.4944a20.0704 20.0704 0 0 0-19.9936 19.9936v59.52c0 11.008 8.9856 19.968 19.968 19.968h59.52c11.008 0 19.9936-8.96 19.9936-19.968V166.9888a19.9424 19.9424 0 0 0-19.9936-19.968z m137.7024 263.808h-59.4944a20.0704 20.0704 0 0 0-20.0192 19.9936v59.4944c0 11.008 9.0112 20.0192 20.0192 20.0192h59.4944c11.008 0 19.9936-9.0112 19.9936-20.0192v-59.4944a19.9424 19.9424 0 0 0-19.9936-19.9936z"
    p-id="4300">
  </path>
  <path
    d="M212.992 677.9904a36.096 36.096 0 1 0 72.192 0 36.096 36.096 0 0 0-72.192 0z"
    p-id="4301"
  >
  </path>
</svg>