<svg xmlns="http://www.w3.org/2000/svg" height="140" width="140">
  <g transform="matrix(1.5976331360946747,0,0,1.5976331360946747,-10,-12)" fill="#2e91ce">
    <path xmlns="http://www.w3.org/2000/svg" d="M70.211,68.149C68.899,58.162,60.338,50.425,50,50.425c-10.342,0-18.903,7.737-20.215,17.724H7.75v5.341h84.5v-5.341H70.211  z M50,55.766c2.899,0,5.607,0.826,7.906,2.252c-0.243,3.376-6.026,8.754-10.711,10.131H35.183  C36.446,61.118,42.611,55.766,50,55.766z M19.706,56.412l-9.414-5.435l2.67-4.625l9.414,5.435L19.706,56.412z M30.967,43.196  l-5.435-9.414l4.626-2.67l5.435,9.414L30.967,43.196z M52.67,37.381h-5.341V26.51h5.341V37.381z M69.031,43.196l-4.626-2.67  l5.435-9.414l4.626,2.67L69.031,43.196z M80.293,56.412l-2.67-4.625l9.414-5.435l2.67,4.625L80.293,56.412z" />
  </g>
</svg>
