<svg
  t="1685432439224"
  class="icon"
  viewBox="0 0 1024 1024"
  version="1.1"
  xmlns="http://www.w3.org/2000/svg"
  p-id="10933"
  width="200"
  height="200"
>
  <path
    d="M512 64c-16.128 0-31.872 5.888-44 18.016l-90.016 90.976c-4.864 2.624-8.96 6.4-11.968 11.008l-284.032 284a62.304 62.304 0 0 0 0 88l386.016 386.016a62.56 62.56 0 0 0 88 0l386.016-386.016a62.304 62.304 0 0 0 0-88L555.968 81.984A61.536 61.536 0 0 0 512 64z m0 64.992L895.008 512 512 895.008 128.992 512l265.024-264.992 56 56A63.36 63.36 0 0 0 448 320c0 23.616 12.864 43.872 32 55.008v273.984c-19.136 11.136-32 31.36-32 55.008a63.968 63.968 0 1 0 128 0c0-23.616-12.864-43.872-32-55.008v-250.976l98.016 97.984A63.968 63.968 0 0 0 704 576c35.328 0 63.968-28.64 63.968-64a63.968 63.968 0 0 0-80-62.016L573.984 336A63.968 63.968 0 0 0 512 256a63.36 63.36 0 0 0-16.96 2.016l-56-56z"
    p-id="10934"
  >
  </path>
</svg>