<svg t="1685451631217" class="icon" viewBox="0 0 1024 1024" version="1.1" xmlns="http://www.w3.org/2000/svg" p-id="13896" width="200" height="200"><path d="M512 1024c-14.4 0-27.2-3.2-40-11.2l-124.8-73.6c-19.2-11.2-9.6-14.4-3.2-16 25.6-8 30.4-11.2 56-25.6 3.2-1.6 6.4-1.6 9.6 1.6l96 57.6c3.2 1.6 8 1.6 11.2 0l376-216c3.2-1.6 6.4-6.4 6.4-9.6V294.4c0-4.8-1.6-8-6.4-9.6L516.8 68.8c-3.2-1.6-8-1.6-11.2 0L131.2 284.8c-3.2 1.6-6.4 6.4-6.4 9.6v433.6c0 4.8 1.6 8 6.4 9.6l102.4 59.2c56 27.2 89.6-4.8 89.6-38.4V332.8c0-6.4 4.8-11.2 11.2-11.2h48c6.4 0 11.2 4.8 11.2 11.2v427.2c0 73.6-40 116.8-110.4 116.8-22.4 0-38.4 0-86.4-24l-97.6-56c-24-14.4-40-40-40-68.8V294.4c0-28.8 14.4-54.4 40-68.8L472 9.6C496-3.2 528-3.2 550.4 9.6l376 217.6c24 14.4 40 40 40 68.8v433.6c0 28.8-14.4 54.4-40 68.8L552 1012.8c-12.8 8-25.6 11.2-40 11.2z m302.4-427.2c0-81.6-54.4-102.4-169.6-118.4-116.8-16-128-24-128-51.2 0-22.4 9.6-52.8 96-52.8 76.8 0 105.6 16 116.8 68.8 1.6 4.8 4.8 8 11.2 8h48c3.2 0 6.4-1.6 8-3.2 1.6-1.6 3.2-4.8 3.2-8-8-89.6-67.2-131.2-187.2-131.2-107.2 0-171.2 44.8-171.2 121.6 0 81.6 64 105.6 166.4 115.2 123.2 11.2 132.8 30.4 132.8 54.4 0 41.6-33.6 59.2-112 59.2-99.2 0-121.6-25.6-128-73.6-1.6-4.8-4.8-9.6-11.2-9.6h-48c-6.4 0-11.2 4.8-11.2 11.2 0 62.4 33.6 139.2 198.4 139.2 118.4 0 185.6-48 185.6-129.6z" p-id="13897"></path></svg>